<svg width="32" height="14" viewBox="0 0 32 14" fill="none" xmlns="http://www.w3.org/2000/svg">
<path d="M0.69 7.29V6.17L6.71 2.684V3.846L1.74 6.66V6.772L6.71 9.586V10.776L0.69 7.29ZM9.15453 12.932L14.0265 0.359999H15.0345L10.1625 12.932H9.15453ZM17.6191 3.776H18.7391V4.952H18.7951C19.2617 4.056 20.0037 3.608 21.0211 3.608C21.9077 3.608 22.5984 3.93933 23.0931 4.602C23.5971 5.26467 23.8491 6.19333 23.8491 7.388C23.8491 8.58267 23.5971 9.51133 23.0931 10.174C22.5984 10.8367 21.9077 11.168 21.0211 11.168C20.0037 11.168 19.2617 10.72 18.7951 9.824H18.7391V13.8H17.6191V3.776ZM20.5871 10.174C21.2404 10.174 21.7444 9.978 22.0991 9.586C22.4631 9.18467 22.6451 8.65733 22.6451 8.004V6.772C22.6451 6.11867 22.4631 5.596 22.0991 5.204C21.7444 4.80267 21.2404 4.602 20.5871 4.602C20.3351 4.602 20.0971 4.63467 19.8731 4.7C19.6491 4.76533 19.4531 4.86333 19.2851 4.994C19.1171 5.11533 18.9817 5.26933 18.8791 5.456C18.7857 5.63333 18.7391 5.84333 18.7391 6.086V8.69C18.7391 8.93267 18.7857 9.14733 18.8791 9.334C18.9817 9.51133 19.1171 9.66533 19.2851 9.796C19.4531 9.91733 19.6491 10.0107 19.8731 10.076C20.0971 10.1413 20.3351 10.174 20.5871 10.174ZM25.8736 9.614L30.8436 6.8V6.688L25.8736 3.874V2.684L31.8936 6.17V7.29L25.8736 10.776V9.614Z" fill="#FFC289"/>
</svg>
