<svg width="24" height="12" viewBox="0 0 24 12" fill="none" xmlns="http://www.w3.org/2000/svg">
<path d="M0.69 5.29V4.17L6.71 0.683999V1.846L1.74 4.66V4.772L6.71 7.586V8.776L0.69 5.29ZM9.22453 1.776H10.3445V2.952H10.4005C10.8672 2.056 11.6092 1.608 12.6265 1.608C13.5132 1.608 14.2039 1.93933 14.6985 2.602C15.2025 3.26467 15.4545 4.19333 15.4545 5.388C15.4545 6.58267 15.2025 7.51133 14.6985 8.174C14.2039 8.83667 13.5132 9.168 12.6265 9.168C11.6092 9.168 10.8672 8.72 10.4005 7.824H10.3445V11.8H9.22453V1.776ZM12.1925 8.174C12.8459 8.174 13.3499 7.978 13.7045 7.586C14.0685 7.18467 14.2505 6.65733 14.2505 6.004V4.772C14.2505 4.11867 14.0685 3.596 13.7045 3.204C13.3499 2.80267 12.8459 2.602 12.1925 2.602C11.9405 2.602 11.7025 2.63467 11.4785 2.7C11.2545 2.76533 11.0585 2.86333 10.8905 2.994C10.7225 3.11533 10.5872 3.26933 10.4845 3.456C10.3912 3.63333 10.3445 3.84333 10.3445 4.086V6.69C10.3445 6.93267 10.3912 7.14733 10.4845 7.334C10.5872 7.51133 10.7225 7.66533 10.8905 7.796C11.0585 7.91733 11.2545 8.01067 11.4785 8.076C11.7025 8.14133 11.9405 8.174 12.1925 8.174ZM17.4791 7.614L22.4491 4.8V4.688L17.4791 1.874V0.683999L23.4991 4.17V5.29L17.4791 8.776V7.614Z" fill="#FFC289"/>
</svg>
