<svg width="54" height="23" viewBox="0 0 54 23" fill="none" xmlns="http://www.w3.org/2000/svg">
<path d="M0.04 12.64V10.72L10.36 4.744V6.736L1.84 11.56V11.752L10.36 16.576V18.616L0.04 12.64ZM20.1426 19.288C18.0946 19.288 16.5666 18.544 15.5586 17.056C14.5666 15.568 14.0706 13.424 14.0706 10.624C14.0706 7.824 14.5666 5.68 15.5586 4.192C16.5666 2.704 18.0946 1.96 20.1426 1.96C20.9106 1.96 21.5746 2.064 22.1346 2.272C22.6946 2.48 23.1746 2.76 23.5746 3.112C23.9746 3.464 24.3106 3.864 24.5826 4.312C24.8546 4.744 25.0946 5.184 25.3026 5.632L23.5746 6.424C23.4306 6.056 23.2626 5.712 23.0706 5.392C22.8786 5.056 22.6466 4.768 22.3746 4.528C22.1186 4.272 21.8066 4.072 21.4386 3.928C21.0866 3.784 20.6546 3.712 20.1426 3.712C18.8146 3.712 17.8226 4.216 17.1666 5.224C16.5266 6.232 16.2066 7.576 16.2066 9.256V11.992C16.2066 13.672 16.5266 15.016 17.1666 16.024C17.8226 17.032 18.8146 17.536 20.1426 17.536C20.6546 17.536 21.0866 17.464 21.4386 17.32C21.8066 17.176 22.1186 16.984 22.3746 16.744C22.6466 16.488 22.8786 16.2 23.0706 15.88C23.2626 15.544 23.4306 15.192 23.5746 14.824L25.3026 15.616C25.0946 16.08 24.8546 16.528 24.5826 16.96C24.3106 17.392 23.9746 17.784 23.5746 18.136C23.1746 18.488 22.6946 18.768 22.1346 18.976C21.5746 19.184 20.9106 19.288 20.1426 19.288ZM28.9413 22.312L37.2933 0.759999H39.0213L30.6693 22.312H28.9413ZM43.2119 16.624L51.7319 11.8V11.608L43.2119 6.784V4.744L53.5319 10.72V12.64L43.2119 18.616V16.624Z" fill="#E7762B"/>
</svg>
