<svg width="16" height="16" viewBox="0 0 16 16" fill="none" xmlns="http://www.w3.org/2000/svg">
<path d="M8.00006 1.49756C6.41704 1.49762 4.8857 2.06097 3.68004 3.08679C2.47437 4.11261 1.67306 5.53397 1.41948 7.09655C1.1659 8.65912 1.4766 10.2609 2.29599 11.6154C3.11538 12.9698 4.38998 13.9885 5.89174 14.4892C6.22507 14.5476 6.35007 14.3476 6.35007 14.1726C6.35007 14.0142 6.34173 13.4892 6.34173 12.9309C4.66673 13.2392 4.23339 12.5226 4.10006 12.1476C3.95211 11.7829 3.71758 11.4597 3.41673 11.2059C3.18339 11.0809 2.85006 10.7726 3.40839 10.7642C3.62158 10.7874 3.82605 10.8616 4.00448 10.9805C4.18291 11.0995 4.33004 11.2597 4.43339 11.4476C4.52457 11.6114 4.64718 11.7555 4.79419 11.8719C4.94119 11.9882 5.10971 12.0744 5.29008 12.1255C5.47045 12.1766 5.65913 12.1916 5.84531 12.1696C6.03149 12.1477 6.21151 12.0892 6.37505 11.9976C6.40391 11.6586 6.55495 11.3418 6.80006 11.1059C5.31673 10.9392 3.76673 10.3642 3.76673 7.81424C3.75736 7.15168 4.00185 6.51063 4.45006 6.02258C4.24625 5.44672 4.27009 4.81477 4.51673 4.25591C4.51673 4.25591 5.07504 4.0809 6.35006 4.93924C7.44092 4.63923 8.59253 4.63923 9.68339 4.93924C10.9584 4.07258 11.5167 4.25591 11.5167 4.25591C11.7634 4.81476 11.7872 5.44673 11.5834 6.02258C12.033 6.50979 12.2777 7.1514 12.2667 7.81424C12.2667 10.3726 10.7084 10.9392 9.22506 11.1059C9.38416 11.2672 9.50669 11.4608 9.58434 11.6736C9.66199 11.8864 9.69293 12.1134 9.67506 12.3392C9.67506 13.2309 9.66672 13.9476 9.66672 14.1726C9.66672 14.3476 9.79172 14.5559 10.1251 14.4892C11.6242 13.9845 12.8951 12.9634 13.711 11.6083C14.5269 10.2531 14.8346 8.65211 14.5793 7.09105C14.324 5.52999 13.5222 4.11047 12.317 3.0859C11.1119 2.06133 9.58187 1.49838 8.00006 1.49756Z" fill="#1C3B4F"/>
</svg>
