<svg width="17" height="17" viewBox="0 0 17 17" fill="none" xmlns="http://www.w3.org/2000/svg">
<g id="icon-mouse-pointer">
<path id="Shape" fill-rule="evenodd" clip-rule="evenodd" d="M2.88328 1.82131C2.63391 1.71742 2.3465 1.77428 2.15549 1.9653C1.96447 2.15632 1.90761 2.44373 2.0115 2.69309L6.72483 14.0064C6.83148 14.2624 7.08549 14.4257 7.36266 14.4163C7.63984 14.407 7.88228 14.227 7.97147 13.9644L9.30009 10.0527L12.8222 13.5748C13.0825 13.8351 13.5046 13.8351 13.765 13.5748C14.0253 13.3144 14.0253 12.8923 13.765 12.632L10.2429 9.1099L14.1546 7.78129C14.4172 7.6921 14.5972 7.44965 14.6065 7.17248C14.6158 6.8953 14.4526 6.6413 14.1966 6.53464L2.88328 1.82131ZM7.27671 11.8641L3.86486 3.67467L12.0543 7.08653L8.79916 8.19212C8.60298 8.25875 8.44894 8.4128 8.38231 8.60897L7.27671 11.8641Z" fill="#E7762B"/>
</g>
</svg>
