<svg width="20" height="20" viewBox="0 0 20 20" fill="none" xmlns="http://www.w3.org/2000/svg">
<path fill-rule="evenodd" clip-rule="evenodd" d="M3.33325 0.833334C1.95254 0.833334 0.833252 1.95262 0.833252 3.33333C0.833252 4.71405 1.95254 5.83333 3.33325 5.83333C4.71396 5.83333 5.83325 4.71405 5.83325 3.33333C5.83325 1.95262 4.71396 0.833334 3.33325 0.833334ZM2.49992 3.33333C2.49992 2.8731 2.87301 2.5 3.33325 2.5C3.79349 2.5 4.16658 2.8731 4.16658 3.33333C4.16658 3.79357 3.79349 4.16667 3.33325 4.16667C2.87301 4.16667 2.49992 3.79357 2.49992 3.33333Z" fill="#F58439"/>
<path fill-rule="evenodd" clip-rule="evenodd" d="M13.3333 5.83333C11.7862 5.83333 10.3024 6.44792 9.20846 7.54188C8.1145 8.63584 7.49992 10.1196 7.49992 11.6667V17.5C7.49992 17.9602 7.87301 18.3333 8.33325 18.3333H11.6666C12.1268 18.3333 12.4999 17.9602 12.4999 17.5V11.6667C12.4999 11.4457 12.5877 11.2337 12.744 11.0774C12.9003 10.9211 13.1122 10.8333 13.3333 10.8333C13.5543 10.8333 13.7662 10.9211 13.9225 11.0774C14.0788 11.2337 14.1666 11.4457 14.1666 11.6667V17.5C14.1666 17.9602 14.5397 18.3333 14.9999 18.3333H18.3333C18.7935 18.3333 19.1666 17.9602 19.1666 17.5V11.6667C19.1666 10.1196 18.552 8.63584 17.458 7.54188C16.3641 6.44792 14.8803 5.83333 13.3333 5.83333ZM13.3333 7.5C12.2282 7.5 11.1684 7.93899 10.387 8.72039C9.60557 9.50179 9.16658 10.5616 9.16658 11.6667V16.6667H10.8333V11.6667C10.8333 11.0036 11.0966 10.3677 11.5655 9.8989C12.0343 9.43006 12.6702 9.16667 13.3333 9.16667C13.9963 9.16667 14.6322 9.43006 15.101 9.8989C15.5699 10.3677 15.8333 11.0036 15.8333 11.6667V16.6667H17.4999V11.6667C17.4999 10.5616 17.0609 9.50179 16.2795 8.72039C15.4981 7.93899 14.4383 7.5 13.3333 7.5Z" fill="#F58439"/>
<path fill-rule="evenodd" clip-rule="evenodd" d="M0.833252 7.5C0.833252 7.03976 1.20635 6.66667 1.66659 6.66667H4.99992C5.46016 6.66667 5.83325 7.03976 5.83325 7.5V17.5C5.83325 17.9602 5.46016 18.3333 4.99992 18.3333H1.66659C1.20635 18.3333 0.833252 17.9602 0.833252 17.5V7.5ZM2.49992 8.33333V16.6667H4.16658V8.33333H2.49992Z" fill="#F58439"/>
</svg>
